<?xml version="1.0" encoding="UTF-8"?>
<svg id="Layer_1" data-name="Layer 1" xmlns="http://www.w3.org/2000/svg" viewBox="0 0 361 361">
  <defs>
    <style>
      .cls-1 {
        fill: #607966;
        stroke: #607966;
        stroke-miterlimit: 10;
      }
    </style>
  </defs>
  <path class="cls-1" d="m360.5,180.5c0-32.0771-8.4026-62.1869-23.1088-88.2695l.0067-.0038-1.8023-3.1217-1.2169.7026-.1973-.114,1.3086-.7555C304.4359,36.4853,247.5225,1.1629,182.3.5228v-.0228h-3.6v.0228C113.4775,1.1629,56.5641,36.4853,25.5101,88.938l.038.022-1.8,3.1177-.0427-.0247C8.9377,118.1761.5,148.3508.5,180.5s8.4377,62.3239,23.2054,88.4468l1.2546-.7244v.0686l-1.1429.6599,1.7703,3.0663-.0773.0447c31.0541,52.4528,87.9675,87.7752,153.19,88.4153v.0228h3.6v-.0228c65.2219-.6401,122.1348-35.9619,153.1891-88.414l.0273.0158,1.8016-3.1204-.0228-.0131c14.7672-26.1227,23.2047-56.2969,23.2047-88.4456Zm-3.6,0c0,31.4929-8.2621,61.0521-22.723,86.6452l-149.8736-86.5296,149.9695-86.5847c14.3999,25.5529,22.6271,55.0478,22.6271,86.4691Zm-26.5153,88.6162l-148.0847,85.4965v-170.9932l148.0847,85.4968Zm-148.0847-91.5062V6.1616l148.4787,85.7244-148.4787,85.7239Zm-3.6-.2295L30.5908,91.8696,178.7,6.3591v171.0214Zm151.6847-89.8789L186.1461,4.2252c60.9261,1.9185,114.0434,34.7146,144.2386,83.2764ZM175.2124,4.2156L30.4279,87.8068C60.6489,38.9826,114.0092,6.0204,175.2124,4.2156ZM4.1,180.5c0-30.1031,7.5643-58.4301,20.8602-83.2246l-.0002,166.4489c-13.2958-24.7944-20.86-53.1213-20.86-83.2242Zm24.5281,89.7617l-.0635.0367.0002-175.4379,150.1352,86.6806v175.3362c-63.8901-.6399-119.6405-35.2385-150.0719-86.6155Zm157.1082,86.524l144.8626-83.6362c-30.2248,48.8617-83.6197,81.8479-144.8626,83.6362Z"/>
</svg>